<svg width="17" height="23" viewBox="0 0 17 23" fill="none" xmlns="http://www.w3.org/2000/svg">
<path d="M1.1543 9.16667H2.30814V1H10.962C13.8466 1 16.1543 3.33333 16.1543 6.25C16.1543 9.16667 13.8466 11.5 10.962 11.5H4.61584V13.8333H11.5389V16.1667H4.61584V22H2.30814V16.1667H1.1543V13.8333H2.30814V11.5H1.1543V9.16667ZM10.962 3.33333H4.61584V9.16667H10.962C11.727 9.16667 12.4608 8.85938 13.0017 8.31239C13.5427 7.76541 13.8466 7.02355 13.8466 6.25C13.8466 5.47645 13.5427 4.73459 13.0017 4.18761C12.4608 3.64062 11.727 3.33333 10.962 3.33333Z" fill="black" stroke="black"/>
</svg>
